<?xml version="1.0"?>


<svg version="1.1" id="Layer_1" xmlns="http://www.w3.org/2000/svg" xmlns:xlink="http://www.w3.org/1999/xlink" x="0px" y="0px" viewBox="232 172.3 359 237" enable-background="new 232 172.3 359 237" xml:space="preserve">
<g>
&#x9;<path fill="#0C68B0" d="M274.1,403.1c-2.6-0.1-4.3-1.1-5.2-2.7c-0.7-1.2-1-3.3-1-6.2v-1.8c-0.1-1.2-0.6-2.2-1.5-3&#xA;&#x9;&#x9;c-1-0.9-2-1.3-3.2-1.3c-2.4,0-4.1,0.1-4.9,0.2V399c0,1,0.2,2.4,0.7,4.1c-0.8,0.2-1.6,0.2-2.4,0c-2.3-0.5-3.4-2-3.4-4.5V377&#xA;&#x9;&#x9;c0-1.6,0-2.5-0.1-2.8c-0.2-0.9-0.7-1.2-1.4-1.2l0.4-1.4c2.6,0.1,4.3,1.1,5.2,2.7c0.7,1.2,1,3.3,1,6.2v5.8c1.3-0.5,3-0.7,4.9-0.7&#xA;&#x9;&#x9;c0.4,0,2,0.2,4.7,0.7v-10.4c0-0.9-0.2-2.3-0.7-4.1c0.8-0.2,1.6-0.2,2.5,0c2.3,0.5,3.4,2,3.4,4.6v21.5c0,1.7,0,2.6,0,2.8&#xA;&#x9;&#x9;c0.1,0.9,0.7,1.2,1.4,1.2L274.1,403.1z"></path>
&#x9;<path fill="#0C68B0" d="M277,384c0.7-0.1,1.4-0.1,2-0.1c0.7,0,1.2,0,1.5,0.1c0.9,0.2,1.5,0.9,2,1.9c0.4,0.8,0.6,1.7,0.6,2.5v11&#xA;&#x9;&#x9;c0,1.2,0.6,1.8,1.9,1.8c0.8,0,1.4-0.2,2.1-0.6c0.7-0.4,1-0.9,1-1.5v-12.5c0-0.9-0.1-1.7-0.4-2.6c1.3-0.1,2.3-0.1,2.9,0&#xA;&#x9;&#x9;c0.9,0.1,1.5,0.5,1.9,1.1c0.5,0.6,0.7,1.3,0.7,2v12.5c0,1,0,1.6,0,1.8c0.1,0.5,0.6,0.8,1.2,0.8l-0.3,0.9c-2.5-0.1-4.3-0.9-5.2-2.3&#xA;&#x9;&#x9;c-0.9,1.5-2.6,2.3-5,2.3c-2.2,0-3.7-0.5-4.7-1.4c-0.9-0.9-1.3-2.3-1.3-4.1v-11.4C277.8,385.6,277.5,384.8,277,384z"></path>
&#x9;<path fill="#0C68B0" d="M310.6,400.5c-1.7,1.7-3.6,2.4-5.6,2.4c-3.2,0-5.2-0.8-6.2-2.3c-0.6-0.9-0.9-2.4-0.9-4.5v-21.8&#xA;&#x9;&#x9;c0-0.9-0.3-1.8-0.9-2.8c0.7-0.1,1.4-0.1,2.1-0.1c0.7,0,1.2,0,1.5,0.1c0.9,0.3,1.5,1.2,2,2.6c0.4,1.1,0.5,2.3,0.5,3.5v7.1&#xA;&#x9;&#x9;c1.4-0.6,2.8-0.9,4.3-0.9c4,0,6.1,2.3,6.1,6.8C313.6,394.2,312.6,398.6,310.6,400.5z M306.3,386.3c-2.4,0-3.1,1.9-3.1,2.6&#xA;&#x9;&#x9;c0,0-0.2,10.7,0,11.3c0.2,0.7,0.8,1,1.8,0.9c1.3,0,2.3-0.7,2.9-2c0.3-0.6,0.2-9.3,0.3-10.7C308.3,388.1,307.6,386.3,306.3,386.3z"></path>
&#x9;<path fill="#0C68B0" d="M330.4,393.6c-0.8,0.5-2.7,1.3-5.4,2.2c-1.8,0.6-2.7,1.3-2.7,2.3c0,0.2,0,0.4,0.1,0.7&#xA;&#x9;&#x9;c0.5,1.6,1.3,2.4,2.7,2.6c0.3,0,0.7,0,1,0c1.4,0,2.8-0.2,4-0.7l0.2,1c-1.5,0.8-3.4,1.2-5.6,1.2c-3.1,0-5.3-0.6-6.4-1.8&#xA;&#x9;&#x9;c-0.7-0.8-1.1-1.9-1.1-3.6v-7.4c0-0.6,0.3-1.4,1-2.4c0.6-0.9,1.2-1.5,1.9-2c1.7-1.3,4-2,6.7-2c2.2,0,3.7,0.5,4.8,1.4&#xA;&#x9;&#x9;c0.9,0.9,1.3,2.2,1.3,4C332.8,391.1,332,392.6,330.4,393.6z M325,386.4c-1.3,0-2.1,0.7-2.4,2c-0.1,0.4-0.2,1.5-0.2,3.3v2.6&#xA;&#x9;&#x9;c1.1-0.4,2.3-1.1,3.8-2c0.4-0.2,0.7-0.8,1-1.6c0.2-0.8,0.3-1.4,0.3-1.9C327.5,387.2,326.7,386.4,325,386.4z"></path>
&#x9;<path fill="#0C68B0" d="M353.1,390.5c-0.6,0.1-1.2,0.2-1.8,0.2c-0.5,0-0.9,0-1.2-0.2c-1-0.3-1.7-0.9-2-1.7&#xA;&#x9;&#x9;c-0.2-0.6-0.4-1.1-0.6-1.7c-0.3-0.5-1-0.8-1.9-0.8c-1.3,0-2.2,0.6-2.5,1.8c-0.1,0.4-0.1,1.4-0.1,3.1v8.4c0,1,0,1.5,0.1,1.7&#xA;&#x9;&#x9;c0.1,0.5,0.4,0.8,1.1,0.8l-0.3,0.9c-4-0.1-6.1-2-6.1-5.6v-10.6c0-0.9-0.1-1.7-0.4-2.6c1.2-0.2,2.3-0.2,3,0c0.5,0.1,1,0.4,1.5,0.7&#xA;&#x9;&#x9;c0.6,0.4,0.8,0.8,0.8,1.2l0,0c1.2-1.6,2.8-2.4,4.6-2.4c3.7,0,5.7,1.5,6,4.5C353.1,388.4,353.1,389.2,353.1,390.5z"></path>
&#x9;<path fill="#0C68B0" d="M363.6,386.4v12.5c0,1.2,0,1.9,0.1,2.2c0.1,0.7,0.4,1,1.1,1l-0.3,1.1c-4.1-0.2-6.1-2.5-6.1-7v-9.8H356v-2.5&#xA;&#x9;&#x9;h2.4v-3.7c0-1-0.1-2.2-0.4-3.3c1.3-0.1,2.4-0.1,3,0c1.9,0.4,2.7,1.4,2.7,3.2v3.8h3.5v2.5L363.6,386.4L363.6,386.4z"></path>
&#x9;<path fill="#0C68B0" d="M371,384c0.7-0.1,1.4-0.1,2-0.1c0.7,0,1.2,0,1.5,0.1c0.9,0.2,1.5,0.9,2,1.9c0.4,0.8,0.6,1.7,0.6,2.5v11&#xA;&#x9;&#x9;c0,1.2,0.6,1.8,1.9,1.8c0.8,0,1.4-0.2,2.1-0.6c0.7-0.4,1-0.9,1-1.5v-12.5c0-0.9-0.1-1.7-0.4-2.6c1.3-0.1,2.3-0.1,2.9,0&#xA;&#x9;&#x9;c0.9,0.1,1.5,0.5,1.9,1.1c0.5,0.6,0.7,1.3,0.7,2v12.5c0,1,0,1.6,0,1.8c0.1,0.5,0.6,0.8,1.2,0.8l-0.3,0.9c-2.5-0.1-4.3-0.9-5.2-2.3&#xA;&#x9;&#x9;c-0.9,1.5-2.6,2.3-5,2.3c-2.2,0-3.7-0.5-4.7-1.4c-0.9-0.9-1.3-2.3-1.3-4.1v-11.4C371.9,385.6,371.6,384.8,371,384z"></path>
&#x9;<path fill="#0C68B0" d="M398.7,403c-1.4,0-3.1-0.5-5.2-1.3l0.2-1c1.2,0.4,2.9,0.7,5,0.7c1.5,0,2.4-1,2.6-3c0-0.2,0-0.5,0-0.7&#xA;&#x9;&#x9;c0-0.5-0.3-0.9-1-1.3c-0.3-0.1-0.8-0.5-1.6-0.9l-2.9-1.5c-1.3-0.8-2.4-1.5-2.9-2.3c-0.6-0.8-0.9-1.8-0.9-3.1c0-1.3,0.8-2.5,2.5-3.5&#xA;&#x9;&#x9;c1.5-0.8,3.2-1.2,4.9-1.2c2.4,0,4.2,0.4,5.3,1.1c1.1,0.8,1.6,2.1,1.6,4v1.4c-0.7,0.1-1.3,0.2-1.8,0.2s-1,0-1.3-0.2&#xA;&#x9;&#x9;c-1.4-0.5-2.1-1.4-2.1-2.7c0-0.5-0.2-0.9-0.5-1.2c-0.4-0.3-0.9-0.5-1.4-0.5c-0.7,0-1.3,0.1-1.9,0.4s-0.9,0.8-0.9,1.4&#xA;&#x9;&#x9;c0,1,0.8,1.9,2.4,2.7l4.3,2.3c0.8,0.4,1.5,1,2.2,1.6c0.8,0.8,1.3,1.4,1.4,2c0,0.4,0,0.8,0,1.2C406.7,401.2,404,403,398.7,403z"></path>
&#x9;<path fill="#0C68B0" d="M422.6,394.3h-11.1v-2.5h12L422.6,394.3z"></path>
&#x9;<path fill="#0C68B0" d="M447.4,396.4c0,0.7-0.3,1.5-0.8,2.4c-0.5,1-1.1,1.6-1.7,2c-2.1,1.4-4.2,2.2-6.6,2.2c-0.6,0-1.5,0-2.7,0&#xA;&#x9;&#x9;c-0.8,0-1.4-0.2-2.1-0.6c-0.2-0.1-0.7-0.5-1.6-1.1c-1.5,1.1-3.1,1.6-4.5,1.7l-0.5-1.6c0.7,0,1.2-0.5,1.3-1.4c0-0.3,0-1.2,0-2.5&#xA;&#x9;&#x9;v-14.7c0-3,1.1-5.6,3.2-7.9c2.1-2.3,4.7-3.5,7.6-3.5h1.4c2.1,0,3.7,0.9,4.9,2.6c0.2,0.4,0.5,1,0.9,2c0.1,1,0.2,2,0.2,3.2&#xA;&#x9;&#x9;c0,1.2-0.1,2.5-0.3,3.7c0,0.5-0.2,1.2-0.6,1.8c-0.4,0.7-0.9,1.2-1.3,1.5c0.9,0.7,1.4,1.2,1.6,1.4c0.5,0.6,1,1.2,1.2,1.8&#xA;&#x9;&#x9;c0.4,1.2,0.6,2.3,0.6,3.2C447.7,392.9,447.6,394.2,447.4,396.4z M441.3,377.8c0-0.8-0.3-1.6-0.9-2.3c-0.5-0.7-1.2-1.1-2-1.1&#xA;&#x9;&#x9;c-3.5,0-5.2,1.8-5.2,5.5v7.1c0.9-0.7,2.1-1.2,3.8-1.6c1.2-0.3,2.1-0.7,2.7-1.3c0.2-0.2,0.5-0.7,0.9-1.5c0.4-0.8,0.6-1.3,0.6-1.6&#xA;&#x9;&#x9;C441.3,380.9,441.3,379.7,441.3,377.8z M442.3,391.4c0-0.9-0.4-1.5-1.2-2.1c-0.8-0.6-1.6-0.9-2.5-0.9c-1.2,0-2.4,0.2-3.4,0.7&#xA;&#x9;&#x9;c-1.3,0.6-1.9,1.5-1.9,2.7v5.2c0,1,0.5,1.7,1.3,2.3c0.7,0.5,1.6,0.7,2.6,0.7c2.3,0,3.8-0.9,4.7-2.7c0.3-0.5,0.4-0.9,0.4-1.2&#xA;&#x9;&#x9;c0.1-0.7,0.1-1.5,0.1-2.3S442.4,392.3,442.3,391.4z"></path>
&#x9;<path fill="#0C68B0" d="M468,390.5c-0.6,0.1-1.2,0.2-1.8,0.2c-0.5,0-0.9,0-1.2-0.2c-1-0.3-1.7-0.9-2-1.7c-0.2-0.6-0.4-1.1-0.6-1.7&#xA;&#x9;&#x9;c-0.3-0.5-1-0.8-1.9-0.8c-1.3,0-2.2,0.6-2.5,1.8c-0.1,0.4-0.1,1.4-0.1,3.1v8.4c0,1,0,1.5,0.1,1.7c0.1,0.5,0.4,0.8,1.1,0.8l-0.3,0.9&#xA;&#x9;&#x9;c-4-0.1-6.1-2-6.1-5.6v-10.6c0-0.9-0.1-1.7-0.4-2.6c1.2-0.2,2.3-0.2,3,0c0.5,0.1,1,0.4,1.5,0.7c0.6,0.4,0.8,0.8,0.8,1.2l0,0&#xA;&#x9;&#x9;c1.2-1.6,2.8-2.4,4.6-2.4c3.7,0,5.7,1.5,6,4.5C468,388.4,468,389.2,468,390.5z"></path>
&#x9;<path fill="#0C68B0" d="M482.3,402.8c-1.6-0.4-2.4-1.8-2.4-2.2c-1.3,1.6-2.8,2.4-4.7,2.4c-2.3,0-3.9-0.5-4.8-1.4&#xA;&#x9;&#x9;c-1-0.9-1.4-2.2-1.4-4s0.8-3.3,2.4-4.3c0.9-0.5,2.7-1.3,5.5-2.2c1.8-0.6,2.8-1,2.6-3c-0.1-1.7-1.3-2.5-2.8-2.6&#xA;&#x9;&#x9;c-1.8-0.1-3.5,0.1-5,0.7l-0.1-1c1.5-0.9,3.4-1.2,5.7-1.2c3.2,0,5.4,0.6,6.5,1.8c0.8,0.8,1.2,2,1.2,3.6V400c0,0.8,0.1,2,0.4,2.8&#xA;&#x9;&#x9;C484,403,483,403,482.3,402.8z M479.5,392.9c-0.3,0.1-0.9,0.4-1.9,0.9c-2.2,0.9-3.4,2.2-3.4,3.6c0,1.6,0.9,2.4,2.5,2.4&#xA;&#x9;&#x9;c1.4,0,2.3-0.6,2.6-1.8c0.1-0.4,0.1-1.4,0.1-3.1L479.5,392.9L479.5,392.9z"></path>
&#x9;<path fill="#0C68B0" d="M504,403c-1.6,0-2.7-0.6-3.4-1.7c-0.5-0.9-0.7-1.8-0.7-2.8v-10.9c0-1.2-0.7-1.8-2-1.8&#xA;&#x9;&#x9;c-0.7,0-1.4,0.2-2.1,0.6c-0.7,0.4-1,0.9-1,1.5v12.4c0,0.8,0.1,1.7,0.4,2.6c-1.3,0.1-2.3,0.1-3,0c-1.8-0.3-2.7-1.2-2.7-2.6v-13&#xA;&#x9;&#x9;c0-0.9,0-1.5,0-1.7c-0.1-0.5-0.5-0.8-1.1-0.8l0.3-0.9c2.5,0.1,4.3,0.8,5.2,2.3c0.9-1.6,2.6-2.3,5.1-2.3c4.1,0,6.1,1.8,6.1,5.5v11.2&#xA;&#x9;&#x9;c0,0.7,0.3,1.5,0.9,2.3C505.4,402.9,504.6,403,504,403z"></path>
&#x9;<path fill="#0C68B0" d="M524.9,374.4v17.7c0,3.7-0.6,5.3-2,7.3c-0.7,1-2.8,3.4-5.5,3.5c-4.5,0.2-8.1-2.6-8.1-7v-3.1&#xA;&#x9;&#x9;c0-3.5,1.5-6.4,4.8-8.1c2.4-1.2,5.3-0.9,5.7-0.9v-6.2c0-1.2,0.1-5.2,2.5-6.1c1.2-0.5,2.7-0.1,3.4,0&#xA;&#x9;&#x9;C525.2,372.6,524.9,373.5,524.9,374.4z M517.6,386.6c-0.8,0-1.5,0.2-2.1,0.8c-0.7,0.5-1,1.1-1,1.9v9.3c0,1.5,0.7,2.3,2,2.3&#xA;&#x9;&#x9;c0.8,0,1.6-0.3,2.2-0.9s1-1.9,1-2.7c0-2,0-7.2,0-8.4C519.7,387.3,518.8,386.6,517.6,386.6z"></path>
&#x9;<path fill="#0C68B0" d="M541.7,402.8c-1.6-0.4-2.4-1.8-2.4-2.2c-1.3,1.6-2.8,2.4-4.7,2.4c-2.3,0-3.9-0.5-4.8-1.4&#xA;&#x9;&#x9;c-1-0.9-1.4-2.2-1.4-4s0.8-3.3,2.4-4.3c0.9-0.5,2.7-1.3,5.5-2.2c1.8-0.6,2.8-1,2.6-3c-0.1-1.7-1.3-2.5-2.8-2.6&#xA;&#x9;&#x9;c-1.8-0.1-3.5,0.1-5,0.7l-0.1-1c1.5-0.9,3.4-1.2,5.7-1.2c3.2,0,5.4,0.6,6.5,1.8c0.8,0.8,1.2,2,1.2,3.6V400c0,0.8,0.1,2,0.4,2.8&#xA;&#x9;&#x9;C543.4,403,542.4,403,541.7,402.8z M538.9,392.9c-0.3,0.1-0.9,0.4-1.9,0.9c-2.2,0.9-3.4,2.2-3.4,3.6c0,1.6,0.9,2.4,2.5,2.4&#xA;&#x9;&#x9;c1.4,0,2.3-0.6,2.6-1.8c0.1-0.4,0.1-1.4,0.1-3.1v-2H538.9z"></path>
&#x9;<path fill="#0C68B0" d="M560.9,402.8c-1.6-0.4-2.4-1.8-2.4-2.2c-1.3,1.6-2.8,2.4-4.7,2.4c-2.3,0-3.9-0.5-4.8-1.4&#xA;&#x9;&#x9;c-1-0.9-1.4-2.2-1.4-4s0.8-3.3,2.4-4.3c0.9-0.5,2.7-1.3,5.5-2.2c1.8-0.6,2.8-1,2.6-3c-0.1-1.7-1.3-2.5-2.8-2.6&#xA;&#x9;&#x9;c-1.8-0.1-3.5,0.1-5,0.7l-0.1-1c1.5-0.9,3.4-1.2,5.7-1.2c3.2,0,5.4,0.6,6.5,1.8c0.8,0.8,1.2,2,1.2,3.6V400c0,0.8,0.1,2,0.4,2.8&#xA;&#x9;&#x9;C562.6,403,561.6,403,560.9,402.8z M558.1,392.9c-0.3,0.1-0.9,0.4-1.9,0.9c-2.2,0.9-3.4,2.2-3.4,3.6c0,1.6,0.9,2.4,2.5,2.4&#xA;&#x9;&#x9;c1.4,0,2.3-0.6,2.6-1.8c0.1-0.4,0.1-1.4,0.1-3.1v-2H558.1z"></path>
&#x9;<path fill="#0C68B0" d="M582.6,403c-1.6,0-2.7-0.6-3.4-1.7c-0.5-0.9-0.7-1.8-0.7-2.8v-10.9c0-1.2-0.7-1.8-2-1.8&#xA;&#x9;&#x9;c-0.7,0-1.4,0.2-2.1,0.6c-0.7,0.4-1,0.9-1,1.5v12.4c0,0.8,0.1,1.7,0.4,2.6c-1.3,0.1-2.3,0.1-3,0c-1.8-0.3-2.7-1.2-2.7-2.6v-13&#xA;&#x9;&#x9;c0-0.9,0-1.5,0-1.7c-0.1-0.5-0.5-0.8-1.1-0.8l0.3-0.9c2.5,0.1,4.3,0.8,5.2,2.3c0.9-1.6,2.6-2.3,5.1-2.3c4.1,0,6.1,1.8,6.1,5.5v11.2&#xA;&#x9;&#x9;c0,0.7,0.3,1.5,0.9,2.3C583.9,402.9,583.2,403,582.6,403z"></path>
</g>
<g>
&#x9;<path fill="#0C68B0" d="M247.4,364.7c-0.9,0.8-2.2,1.4-4.2,1.4c-0.9,0-2.2-0.1-3.4-1.1l0.1-0.8c0.8,0.4,1.9,0.6,3.3,0.6&#xA;&#x9;&#x9;c1.6,0,2.5-1.4,2.6-2c0-1-0.4-1.6-2.5-3.4c-1.4-1.2-3-2.5-3.3-2.9c-0.7-0.8-0.9-1.7-0.9-2.7c0-1.1,0.8-3.5,4.7-3.5&#xA;&#x9;&#x9;c1.6,0,2.7,0.6,3.4,1.2c0.7,0.6,1.2,1.8,1.2,3v1.2c-0.3,0.1-0.6,0.2-0.9,0.2c-0.6,0-1.1-0.3-1.5-0.7c-0.3-0.4-0.5-1-0.5-1.7&#xA;&#x9;&#x9;c0-0.4-0.1-1.5-1.7-1.6c-1.9-0.1-2.3,0.9-2.3,1.7c0,0.4,0.2,0.8,0.6,1.2c0.1,0.2,2,1.6,3.6,2.9c1.4,1.1,2.9,2.3,3,4&#xA;&#x9;&#x9;C248.6,362.4,248.3,363.8,247.4,364.7z"></path>
&#x9;<path fill="#0C68B0" d="M257.2,359.8c-0.7-0.3-1.1-0.7-1.1-1.3c0-0.2-0.3-0.9-1-0.8c-1.1,0-1.4,0.5-1.5,0.8c-0.3,0.9-0.6,6.2,1,6.7&#xA;&#x9;&#x9;c1,0.3,2.2,0,2.8-0.2l0.1,0.5c-1,0.4-1.9,0.7-2.6,0.7c-1.7,0-2.3,0-3.3-1c-0.9-0.8-0.6-5.2-0.6-5.2c0-0.9,0.4-1.7,1.3-2.4&#xA;&#x9;&#x9;c0.9-0.7,1.9-1,3-1c3.1,0,3.5,1.6,3.5,2.6v0.7C258.5,359.8,257.8,360,257.2,359.8z"></path>
&#x9;<path fill="#0C68B0" d="M267.4,364.6c-0.3,0.4-1.1,1.4-2.7,1.4c-2.8,0-4.1-1.3-4.1-3.4c-0.1-2.3,0-4.4,2.4-5.8&#xA;&#x9;&#x9;c0.5-0.3,1.3-0.4,2.4-0.4c2,0,3.1,1.5,3.1,3.3C268.5,359.7,269,363.2,267.4,364.6z M265.8,358.8c0-0.6-0.4-1.2-1-1.2&#xA;&#x9;&#x9;c-1.1,0-1.5,1.2-1.5,1.5v4.6c0,0.6,0.3,1.5,1,1.5c1.2,0,1.5-0.9,1.5-1.2C265.9,363.3,265.8,359.3,265.8,358.8z"></path>
&#x9;<path fill="#0C68B0" d="M270.5,356.5c0.4,0,0.7,0,1,0s0.6,0,0.8,0c0.4,0.1,0.7,0.4,1,0.9c0.2,0.4,0.3,0.8,0.3,1.3v5.5&#xA;&#x9;&#x9;c0,0.6,0.3,0.9,1,0.9c0.4,0,0.7-0.1,1-0.3c0.3-0.2,0.5-0.5,0.5-0.8v-6.2c0-0.4-0.1-0.9-0.2-1.3c0.6,0,1.1-0.1,1.4,0&#xA;&#x9;&#x9;c0.4,0.1,0.7,0.3,1,0.6c0.2,0.3,0.4,0.6,0.4,1v6.3c0,0.5,0,0.8,0,0.9c0.1,0.3,0.3,0.4,0.6,0.4l-0.1,0.5c-1.3,0-2.1-0.4-2.6-1.1&#xA;&#x9;&#x9;c-0.5,0.8-1.3,1.2-2.5,1.2c-1.1,0-1.8-0.2-2.3-0.7c-0.4-0.5-0.7-1.1-0.7-2v-5.7C270.9,357.3,270.8,356.9,270.5,356.5z"></path>
&#x9;<path fill="#0C68B0" d="M283.6,357.7v6.2c0,0.6,0,1,0,1.1c0.1,0.3,0.2,0.5,0.5,0.5l-0.2,0.6c-2-0.1-3-1.3-3-3.5v-4.9h-1.2v-1.2h1.2&#xA;&#x9;&#x9;v-1.9c0-0.5-0.1-1.1-0.2-1.6c0.7,0,1.2-0.1,1.5,0c0.9,0.2,1.4,0.7,1.4,1.6v1.9h1.7v1.2L283.6,357.7L283.6,357.7z"></path>
&#x9;<path fill="#0C68B0" d="M290.8,366c-2-0.1-3-1.2-3-3.4v-4.5c0-0.5-0.1-1-0.2-1.6c0.6-0.1,1.1-0.1,1.5,0c0.9,0.2,1.4,0.7,1.4,1.6&#xA;&#x9;&#x9;v5.8c0,0.6,0,1,0,1.1c0.1,0.4,0.2,0.5,0.6,0.5L290.8,366z M289,354.6c-0.6,0-1.2-0.6-1.2-1.2c0-0.7,0.6-1.2,1.2-1.2&#xA;&#x9;&#x9;c0.7,0,1.2,0.5,1.2,1.2C290.1,354.1,289.6,354.6,289,354.6z"></path>
&#x9;<path fill="#0C68B0" d="M300.1,366c-0.8,0-1.3-0.3-1.7-0.9c-0.2-0.4-0.4-0.9-0.4-1.4v-5.4c0-0.6-0.3-0.9-1-0.9&#xA;&#x9;&#x9;c-0.4,0-0.7,0.1-1,0.3c-0.4,0.2-0.5,0.5-0.5,0.7v6.2c0,0.4,0.1,0.9,0.2,1.3c-0.7,0-1.2,0.1-1.5,0c-0.9-0.1-1.4-0.6-1.4-1.3v-6.5&#xA;&#x9;&#x9;c0-0.5,0-0.8,0-0.9c0-0.3-0.2-0.4-0.6-0.4l0.2-0.5c1.3,0,2.1,0.4,2.6,1.1c0.5-0.8,1.3-1.2,2.5-1.2c2,0,3,0.9,3,2.7v5.6&#xA;&#x9;&#x9;c0,0.4,0.2,0.7,0.5,1.1C300.8,366,300.4,366,300.1,366z"></path>
&#x9;<path fill="#0C68B0" d="M310.3,369.5c-0.6,0.8-1.7,1.2-3.3,1.2c-0.7,0-1.6-0.3-2.6-0.8l0.1-0.6c0.6,0.3,1.4,0.5,2.5,0.5&#xA;&#x9;&#x9;c0.9,0,1.4-0.9,1.4-2.8v-1.2c-0.5,0.3-1.2,0.4-2.2,0.4c-2-0.1-3-1.2-3-3.5v-1.6c0-1.8,0.8-3.1,2.4-4c0.5-0.3,1.3-0.5,2.4-0.5&#xA;&#x9;&#x9;s1.9,0.3,2.4,0.9c0.5,0.6,0.7,1.4,0.7,2.5v6C310.9,367.7,310.7,368.8,310.3,369.5z M308.3,359c0-0.7-0.4-1.1-1-1.1&#xA;&#x9;&#x9;c-0.4,0-0.7,0.1-1,0.4c-0.4,0.3-0.6,0.6-0.6,1v4.6c0,0.8,0.3,1.2,1,1.2c0.4,0,0.8-0.1,1.1-0.5c0.3-0.3,0.5-0.6,0.5-1&#xA;&#x9;&#x9;c0.1-0.9,0.1-0.4,0-3.3C308.3,359.6,308.3,359.2,308.3,359z"></path>
</g>
<path fill="#0C68B0" d="M488.1,306.9l3.5,4.9c17.4,5,28.1,11.9,28.3,19.8c0.3,16.5-46.1,30.9-103.7,32.1&#xA;&#x9;c-57.6,1.2-104.6-11.2-104.9-27.7c-0.2-11,20.2-21,50.8-26.8c-1,25-10.7,35.9-10.8,36l0.2-0.2c-0.5,0.4-1.1,1.2-1.1,2.4h1.4&#xA;&#x9;c0,0,0.1,0,0.2,0h1.2l0,0c8.2,0.1,50.5-0.3,96.8-15.3c10.3-3.4,21.3-9,22.4-9.9c0.6-0.5,1-0.4,1.2-0.2s0,0.8-0.3,1.5&#xA;&#x9;c-1.9,4.4-14.1,23.7-14.2,23.9H470c0.5-0.9,12.8-22.1,15.8-30.1c1.2-3.3,1.2-5.1-0.2-7.1c-0.1-0.1-47.1-65.9-54-75.6&#xA;&#x9;c0.4,6.6,1,16.9,1,27.9c0,7.3-0.2,14.9-0.9,22c-1.5,15.9-6.7,30.3-10.5,39c6.7-5.1,17.2-12,27.9-14.8c12.6-3.2,24.9-1.5,32.9,0.5&#xA;&#x9;c-2,0-4,0.8-4.3,0.9c-0.3,0.2-17.1,9.9-30.5,14.6c-46.5,16.2-84.3,21-93.3,22c2.2-2.7,11.2-15.4,11.2-41.4c0-27-7.4-41.9-8.7-44.4&#xA;&#x9;v-6.7h7.3c0,2,0,8.5,0,8.5h13.1c0,0,0-6.5,0-8.5h5.5c-2.6,8.8-4.4,18.1-5,27.5c-0.5,7.5-0.7,14.1-0.7,20.1c0,19.8,2.2,31.4,3.5,36.7&#xA;&#x9;c17.7-20.1,34.1-29.8,43.7-34.2c1.7-6.2,3.2-13,3.9-20.1c0.7-7.8,0.9-16.3,0.9-24.2c-1.9-33-4.3-74.5-4.6-79.9&#xA;&#x9;c-8.3,9.6-30.1,37.1-40.8,71.3h-9.3c0,0,0,6.5,0,8.5h-7.3c0-2,0-8.5,0-8.5h-13.1v10.4l0.2,0.3c0.1,0.1,8.5,15.2,8.5,43.3&#xA;&#x9;c0,0.8,0,1.6,0,2.3c-33.8,6.7-56,18.2-55.5,30.6c0.7,18.1,49.1,30.4,110.2,28.1c61.1-2.3,108.4-18.3,107.7-36.4&#xA;&#x9;C524.1,319.9,510.2,311.9,488.1,306.9z"></path>
</svg>